<svg xmlns="http://www.w3.org/2000/svg" viewBox="0 0 512 512" width="100%" height="100%">
  <defs>
    <!-- MAX Brandbook Gradient: Голубая комета (#00BFFF) -> Синий гигант (#471AFF) -> Пурпурная туманность (#9500FF) -->
    <linearGradient id="maxBrandGradient" x1="0%" y1="0%" x2="100%" y2="100%">
      <stop offset="0%" stop-color="#00BFFF" />
      <stop offset="48%" stop-color="#471AFF" />
      <stop offset="100%" stop-color="#9500FF" />
    </linearGradient>
    <filter id="subtleGlow" x="-10%" y="-10%" width="120%" height="120%">
      <feDropShadow dx="0" dy="8" stdDeviation="16" flood-color="#471AFF" flood-opacity="0.35" />
    </filter>
  </defs>

  <!-- MAX Signature Chat Bubble with Squircle & Tail -->
  <path
    d="M 120 40 
       C 220 36, 292 36, 392 40 
       C 454 44, 476 66, 480 128 
       C 484 220, 484 292, 480 384 
       C 476 446, 454 468, 392 472 
       C 310 476, 240 476, 172 472 
       C 142 470, 96 496, 52 506 
       C 42 508, 36 502, 40 492 
       C 52 460, 62 432, 56 408 
       C 34 374, 28 320, 32 256 
       C 28 174, 34 116, 56 82 
       C 72 58, 92 44, 120 40 Z"
    fill="url(#maxBrandGradient)"
    filter="url(#subtleGlow)"
  />

  <!-- Bold Modern Geometric M Mark in White -->
  <path
    d="M 148 356
       L 148 168
       C 148 155, 158 146, 172 146
       L 204 146
       C 214 146, 224 152, 230 162
       L 256 208
       L 282 162
       C 288 152, 298 146, 308 146
       L 340 146
       C 354 146, 364 155, 364 168
       L 364 356
       C 364 366, 356 374, 346 374
       L 316 374
       C 306 374, 298 366, 298 356
       L 298 238
       L 272 284
       C 266 294, 252 298, 242 292
       C 239 290, 237 287, 235 284
       L 214 238
       L 214 356
       C 214 366, 206 374, 196 374
       L 166 374
       C 156 374, 148 366, 148 356 Z"
    fill="#FFFFFF"
  />
</svg>
